HIERARCHY
ROOT Hips
{
	OFFSET 0.000000 0.000000 0.000000
	CHANNELS 6 Xposition Yposition Zposition Zrotation Yrotation Xrotation 
	JOINT LHipJoint
	{
		OFFSET 0.000000 0.000000 0.000000
		CHANNELS 3 Zrotation Yrotation Xrotation
		JOINT LeftUpLeg
		{
			OFFSET 1.363060 -1.794630 0.839290
			CHANNELS 3 Zrotation Yrotation Xrotation
			JOINT LeftLeg
			{
				OFFSET 2.448110 -6.726130 0.000000
				CHANNELS 3 Zrotation Yrotation Xrotation
				JOINT LeftFoot
				{
					OFFSET 2.562200 -7.039590 0.000000
					CHANNELS 3 Zrotation Yrotation Xrotation
					JOINT LeftToeBase
					{
						OFFSET 0.157640 -0.433110 2.322550
						CHANNELS 3 Zrotation Yrotation Xrotation
						End Site
						{
							OFFSET 0.000000 0.000000 0.000000
						}
					}
				}
			}
		}
	}
	JOINT RHipJoint
	{
		OFFSET 0.000000 0.000000 0.000000
		CHANNELS 3 Zrotation Yrotation Xrotation
		JOINT RightUpLeg
		{
			OFFSET -1.305520 -1.794630 0.839290
			CHANNELS 3 Zrotation Yrotation Xrotation
			JOINT RightLeg
			{
				OFFSET -2.542530 -6.985550 0.000000
				CHANNELS 3 Zrotation Yrotation Xrotation
				JOINT RightFoot
				{
					OFFSET -2.568260 -7.056230 0.000000
					CHANNELS 3 Zrotation Yrotation Xrotation
					JOINT RightToeBase
					{
						OFFSET -0.164730 -0.452590 2.363150
						CHANNELS 3 Zrotation Yrotation Xrotation
						End Site
						{
							OFFSET 0.000000 0.000000 0.000000
						}
					}
				}
			}
		}
	}
}
MOTION
Frames: 33
Frame Time: 0.008333
-13.147701 16.911745 0.478074 12.739030 83.201120 34.427223 -11.951148 5.272077 1.198930 -9.129385 9.055167 -4.840548 -1.685164 0.929878 19.527262 -0.029109 -5.250788 12.229184 -1.524500 0.000000 -78.723800 8.168990 -1.340904 2.805332 15.271114 0.260122 -45.613048 3.606267 -1.579594 27.867297 0.718636 6.192192 -6.472510 0.178200 -0.000000 -33.323200
-12.978733 16.868326 0.500197 14.742524 83.181504 36.275319 -12.000524 5.349534 1.166552 -8.968506 9.313496 -4.923370 -1.630504 1.029733 20.911962 -0.027935 -5.925524 12.650999 -1.775700 -0.000000 -78.697700 8.235368 -1.235727 2.769426 14.665968 0.582129 -46.026924 3.306095 -1.828918 30.838179 0.531075 5.675555 -8.056768 0.088000 0.000000 -28.133900
-12.811977 16.829718 0.519828 16.277023 83.264116 37.630271 -12.076060 5.413877 1.124470 -8.650217 9.603343 -5.118249 -1.553628 1.140372 22.460357 -0.014310 -6.681872 13.253769 -2.086300 0.000000 -78.637400 8.286789 -1.141914 2.708982 14.201871 0.816310 -46.218223 3.044347 -2.030182 33.512989 0.341939 5.133645 -9.590792 0.024300 0.000000 -24.063500
-12.647415 16.796794 0.537362 17.429897 83.452745 38.593309 -12.179253 5.462993 1.077325 -8.184584 9.911951 -5.441377 -1.454021 1.258278 24.156574 0.016840 -7.489781 14.074390 -2.462300 -0.000001 -78.468300 8.315983 -1.071117 2.629819 13.905230 0.957091 -46.181151 2.832468 -2.179291 35.769827 0.157643 4.581393 -11.012938 -0.010401 0.000000 -21.356800
-12.484933 16.770121 0.553283 18.257211 83.747028 39.236638 -12.308240 5.493628 1.030834 -7.587809 10.222666 -5.909378 -1.333440 1.378824 25.983370 0.069434 -8.313558 15.122382 -2.905400 0.000000 -78.079100 8.317154 -1.030890 2.540476 13.786377 1.015143 -45.931093 2.674357 -2.276601 37.542515 -0.020901 4.019143 -12.296605 -0.016800 0.000000 -20.006900
-12.324405 16.749824 0.568586 18.957824 84.134379 39.773525 -12.456731 5.502837 0.992593 -6.903983 10.505165 -6.526381 -1.196261 1.496748 27.915238 0.145161 -9.101190 16.380179 -3.405500 -0.000000 -77.322400 8.288810 -1.022263 2.448272 13.823622 0.996835 -45.505217 2.566910 -2.326470 38.824213 -0.194430 3.448657 -13.439132 0.002800 -0.000000 -19.833500
-12.165903 16.735705 0.584215 19.826406 84.594318 40.505269 -12.619135 5.487407 0.967317 -6.183939 10.732404 -7.282567 -1.048536 1.607609 29.924139 0.242573 -9.798720 17.801487 -3.940400 0.000000 -76.058900 8.230384 -1.042734 2.357433 13.978590 0.908328 -44.939694 2.502962 -2.334618 39.644505 -0.364711 2.869257 -14.448318 0.045600 0.000000 -20.533000
-12.009413 16.727467 0.600823 21.178004 85.107112 41.751517 -12.795522 5.443220 0.956570 -5.462741 10.891623 -8.167763 -0.896515 1.708210 31.987275 0.357147 -10.362805 19.311862 -4.477000 0.000000 -74.225400 8.137580 -1.091320 2.273537 14.216958 0.771342 -44.263492 2.473767 -2.306245 40.046867 -0.535293 2.269142 -15.331344 0.109200 -0.000000 -21.755800
-11.855018 16.724591 0.619424 24.042822 85.635809 44.541203 -12.997243 5.362339 0.963245 -4.806976 10.958105 -9.158445 -0.742812 1.793766 34.077461 0.481450 -10.737226 20.817863 -4.962900 0.000000 -71.788500 7.999023 -1.171510 2.198489 14.469099 0.585197 -43.519142 2.469020 -2.250936 40.110914 -0.706600 1.653541 -16.104412 0.189800 -0.000000 -23.136300
-11.702767 16.726576 0.640511 30.494221 86.154263 50.941125 -13.255444 5.216406 0.987265 -4.262235 10.913738 -10.227340 -0.577282 1.851250 36.178194 0.606619 -10.885057 22.221319 -5.344100 0.000000 -68.864300 7.783595 -1.313888 2.137822 14.671676 0.346573 -42.745369 2.483877 -2.185836 39.912217 -0.880245 1.019469 -16.783815 0.284100 -0.000000 -24.349600
-11.552655 16.732961 0.664277 45.875021 86.690681 66.276988 -13.571283 4.910009 1.022749 -3.837659 10.707438 -11.329020 -0.352255 1.832289 38.301226 0.720438 -10.786789 23.431532 -5.571000 0.000001 -65.666000 7.473601 -1.621132 2.117474 14.771852 0.011722 -42.000234 2.534507 -2.163312 39.502883 -1.059720 0.348701 -17.393786 0.388300 0.000001 -25.172800
-11.404703 16.743356 0.690757 79.352986 87.316967 99.703492 -13.551242 4.361532 1.028958 -3.373638 10.275178 -12.415635 -0.019000 1.676139 40.496116 0.803104 -10.443626 24.361228 -5.606500 0.000000 -62.465600 7.403246 -2.135895 2.203693 14.880061 -0.443970 -41.324155 2.661559 -2.271044 38.865341 -1.246205 -0.407488 -17.947472 0.497300 -0.000000 -25.505100
-11.258824 16.757518 0.719357 115.265206 87.769153 135.630156 -12.898976 4.072549 0.985450 -2.824712 9.894095 -13.612937 0.174598 1.627215 42.615009 0.867238 -9.833531 24.912079 -5.438700 -0.000000 -59.577200 7.944375 -2.276380 2.298819 15.182286 -0.674013 -40.547476 2.745261 -2.312210 38.135976 -1.415336 -1.167753 -18.351682 0.606600 0.000000 -25.373700
-11.115037 16.775212 0.749825 132.325704 87.864717 152.765276 -12.472430 4.071303 0.969768 -2.571046 9.635956 -14.907839 0.210241 1.739836 44.535944 0.934304 -8.947502 25.070130 -5.071700 0.000000 -57.134400 8.347167 -2.114026 2.295787 15.318667 -0.724197 -39.690808 2.720652 -2.195060 37.533566 -1.556571 -1.803923 -18.619223 0.709300 0.000001 -24.889700
-10.973177 16.796344 0.781279 138.965659 87.669156 159.487455 -12.296530 4.048315 0.972127 -2.544841 9.349937 -16.203579 0.245886 1.855486 46.337242 0.990816 -7.846853 24.846949 -4.535600 -0.000000 -55.318300 8.529460 -1.991332 2.271305 15.257955 -0.782087 -38.857615 2.672863 -2.064686 36.991211 -1.680081 -2.365975 -18.799007 0.800301 -0.000000 -24.226101
-10.833182 16.820794 0.813028 141.309347 87.331079 161.908273 -12.205801 3.976001 0.972286 -2.653379 9.029926 -17.474251 0.297382 1.951757 48.026144 1.032475 -6.580938 24.245405 -3.871399 0.000000 -54.107400 8.632469 -1.923343 2.246047 15.080804 -0.865626 -38.047315 2.623947 -1.953056 36.471211 -1.782544 -2.856906 -18.891140 0.873800 0.000000 -23.567700
-10.694896 16.848492 0.844402 141.725735 86.951896 162.391991 -12.141823 3.874966 0.962289 -2.853553 8.704263 -18.708531 0.354008 2.035762 49.580785 1.061200 -5.196245 23.288080 -3.128000 -0.000001 -53.392900 8.710302 -1.885205 2.216789 14.836906 -0.971150 -37.237395 2.577420 -1.856732 35.952158 -1.859207 -3.261028 -18.889746 0.925500 0.000000 -23.081400
-10.558068 16.879310 0.874859 141.253409 86.589204 161.974152 -12.086589 3.759781 0.939561 -3.114595 8.398298 -19.898124 0.406759 2.112886 50.976814 1.080977 -3.738611 22.022049 -2.355700 0.000000 -53.072300 8.778701 -1.863317 2.179865 14.563749 -1.095241 -36.405640 2.536141 -1.768748 35.403773 -1.907939 -3.569029 -18.790477 0.952901 -0.000000 -22.892100
-10.422418 16.913052 0.904050 140.346640 86.271496 161.105481 -12.034245 3.637559 0.903406 -3.415056 8.129845 -21.035332 0.449814 2.184803 52.193556 1.096394 -2.249386 20.509422 -1.599900 -0.000001 -52.969000 8.841179 -1.852567 2.132919 14.287850 -1.239276 -35.533876 2.503239 -1.683605 34.793690 -1.928577 -3.777996 -18.592519 0.955400 0.000000 -23.070400
-10.287595 16.949460 0.931906 139.207951 86.012159 159.987243 -11.982515 3.511594 0.854843 -3.740100 7.909366 -22.115591 0.479558 2.250928 53.215705 1.112350 -0.762329 18.823379 -0.896000 0.000000 -52.922400 8.897780 -1.851564 2.076037 14.026827 -1.403819 -34.610090 2.480980 -1.597080 34.092473 -1.922798 -3.892623 -18.296619 0.933900 -0.000001 -23.629300
-10.153232 16.988150 0.958538 137.895204 85.814900 158.678285 -11.930371 3.383221 0.796301 -4.082225 7.740046 -23.138188 0.494251 2.309522 54.034515 1.133687 0.697741 17.044015 -0.267800 -0.000000 -52.789300 8.947923 -1.860145 2.011160 13.789283 -1.587779 -33.629209 2.470145 -1.506240 33.279097 -1.893626 -3.923698 -17.905213 0.890900 -0.000000 -24.531300
-10.018896 17.028699 0.984208 136.388308 85.677451 157.161855 -11.877306 3.253186 0.730902 -4.440622 7.620511 -24.108107 0.493513 2.359008 54.651946 1.163827 2.112117 15.238503 0.272200 0.000000 -52.348500 8.991509 -1.878154 1.941925 13.575171 -1.787239 -32.594117 2.469831 -1.409470 32.344804 -1.844692 -3.885342 -17.421442 0.829600 -0.000001 -25.697100
-9.884234 17.070592 1.009250 134.601115 85.592464 155.357388 -11.822976 3.121959 0.663007 -4.820916 7.542105 -25.031595 0.478559 2.397400 55.070580 1.206273 3.475010 13.482464 0.724000 0.000000 -51.638300 9.029276 -1.904882 1.872409 13.377166 -1.997040 -31.515064 2.477739 -1.306620 31.294734 -1.779475 -3.791498 -16.849360 0.753400 0.000000 -27.021600
-9.748894 17.113292 1.034012 132.422041 85.550513 153.160011 -11.767143 2.990682 0.596680 -5.231968 7.495530 -25.920106 0.450860 2.424149 55.304847 1.261739 4.780601 11.814495 1.093100 0.000000 -50.535599 9.062691 -1.939209 1.807248 13.183780 -2.210321 -30.408076 2.490630 -1.198785 30.147441 -1.701051 -3.654285 -16.194505 0.665800 -0.000000 -28.392000
-9.612618 17.156323 1.058699 129.722283 85.540854 150.448309 -11.709396 2.860748 0.536238 -5.684225 7.467442 -26.784339 0.412439 2.438928 55.366050 1.330839 6.031449 10.273807 1.391400 0.000001 -49.183200 9.093723 -1.979321 1.750236 12.982059 -2.419408 -29.293333 2.504881 -1.088158 28.931685 -1.611714 -3.482174 -15.462718 0.570000 -0.000001 -29.708800
-9.475238 17.199201 1.083390 126.387375 85.552588 147.114715 -11.648988 2.734443 0.485164 -6.186249 7.446111 -27.637032 0.364321 2.442915 55.271887 1.411697 7.224178 8.859510 1.628799 0.000000 -47.568200 9.124691 -2.023213 1.704568 12.760424 -2.616628 -28.192755 2.517056 -0.977658 27.683522 -1.512991 -3.279268 -14.660964 0.469000 -0.000000 -30.901499
-9.336655 17.241553 1.107975 122.339771 85.575414 143.087587 -11.584456 2.614240 0.446483 -6.742667 7.418658 -28.487967 0.307194 2.437551 55.034796 1.502430 8.357044 7.568053 1.815200 -0.000000 -45.862200 9.158027 -2.068688 1.671842 12.511899 -2.794556 -27.126366 2.524446 -0.870440 26.440065 -1.405855 -3.046259 -13.796709 0.365700 -0.000000 -31.938900
-9.196855 17.283043 1.132193 117.570421 85.600207 138.361898 -11.513727 2.502475 0.422265 -7.352072 7.374197 -29.345259 0.240821 2.424714 54.667020 1.599907 9.420824 6.374469 1.955200 0.000000 -44.155400 9.195981 -2.114060 1.652446 12.235345 -2.947451 -26.110698 2.525607 -0.769502 25.234645 -1.290959 -2.781259 -12.878119 0.263100 -0.000000 -32.829600
-9.055898 17.323426 1.155608 112.161437 85.619483 133.022060 -11.434450 2.400373 0.413868 -8.005748 7.302835 -30.213377 0.164740 2.405735 54.175784 1.700734 10.402022 5.252075 2.050500 0.000000 -42.571600 9.240097 -2.158654 1.645604 11.936977 -3.070903 -25.156418 2.520555 -0.677304 24.091906 -1.169059 -2.482208 -11.913435 0.164300 0.000000 -33.613300
-8.913920 17.362456 1.177786 106.259150 85.625551 127.211152 -11.344865 2.308090 0.421165 -8.692063 7.196606 -31.089054 0.077959 2.381418 53.566028 1.800620 11.279577 4.162045 2.097300 -0.000000 -41.102000 9.290988 -2.202669 1.648275 11.625005 -3.166866 -24.264364 2.510479 -0.595745 23.026283 -1.040857 -2.146328 -10.911420 0.072800 0.000000 -34.353600
-8.770947 17.399928 1.198163 100.112097 85.617550 121.177495 -11.245197 2.223093 0.444980 -9.390470 7.046768 -31.970203 -0.019191 2.351018 52.836187 1.896114 12.034552 3.092599 2.095300 0.000000 -39.912600 9.346263 -2.248217 1.658548 11.316808 -3.233727 -23.431945 2.497856 -0.525257 22.037419 -0.908408 -1.777710 -9.879833 -0.008500 0.000000 -35.114200
-8.627123 17.435604 1.216403 93.941529 85.593452 115.135220 -11.137066 2.143243 0.484621 -10.085334 6.846952 -32.844633 -0.127234 2.313792 51.983793 1.982995 12.644295 2.021170 2.041600 0.000001 -38.921600 9.403013 -2.296787 1.671418 11.023333 -3.280777 -22.646337 2.485240 -0.465639 21.117995 -0.773202 -1.377828 -8.827746 -0.076500 0.000000 -35.956800
-8.482439 17.469218 1.232173 87.974878 85.559374 109.308233 -11.024226 2.065070 0.540583 -10.756642 6.591059 -33.703997 -0.245346 2.268368 51.003754 2.058164 13.094139 0.955282 1.941000 0.000000 -38.187700 9.455766 -2.350488 1.683865 10.760244 -3.311222 -21.893791 2.475249 -0.415137 20.250041 -0.638227 -0.957233 -7.763048 -0.129300 0.000001 -36.921100
